<svg xmlns="http://www.w3.org/2000/svg" xmlns:xlink="http://www.w3.org/1999/xlink" version="1.1" width="1000" height="1000" viewBox="0 0 1000 1000" xml:space="preserve">
<desc>Created with Fabric.js 3.5.0</desc>
<defs>
</defs>
<rect x="0" y="0" width="100%" height="100%" fill="#ffffff"/>
<g transform="matrix(6.6978 0 0 6.6978 500.0008 500.0008)" id="156721">
<path style="stroke: rgb(0,0,0); stroke-width: 25; stroke-dasharray: none; stroke-linecap: butt; stroke-dashoffset: 0; stroke-linejoin: miter; stroke-miterlimit: 4; is-custom-font: none; font-file-url: none; fill: none; fill-rule: nonzero; opacity: 1;" vector-effect="non-scaling-stroke" transform=" translate(-67.5, -67.5)" d="M 132.5 67.5 C 132.5 103.399 103.399 132.5 67.5 132.5 C 31.6015 132.5 2.5 103.399 2.5 67.5 C 2.5 31.6015 31.6015 2.5 67.5 2.5 C 103.399 2.5 132.5 31.6015 132.5 67.5 Z" stroke-linecap="round"/>
</g>
<g transform="matrix(0 -0.125 -0.1246 0 500.1089 269.3917)" id="851160">
<path style="stroke: none; stroke-width: 1; stroke-dasharray: none; stroke-linecap: butt; stroke-dashoffset: 0; stroke-linejoin: miter; stroke-miterlimit: 4; is-custom-font: none; font-file-url: none; fill: rgb(0,0,0); fill-rule: nonzero; opacity: 1;" transform=" translate(-5313.5126, -4704.2154)" d="M 4855 6885 c -106 -38 -142 -163 -84 -294 c 11 -24 43 -74 72 -110 c 414 -518 627 -1121 627 -1776 c 0 -571 -158 -1095 -474 -1570 c -59 -89 -81 -119 -165 -224 c -101 -127 -116 -259 -40 -346 c 78 -88 232 -65 339 52 c 122 131 299 395 404 601 c 164 322 271 656 328 1022 c 20 128 22 182 22 460 c 0 277 -2 332 -22 460 c -91 581 -282 1040 -631 1510 c -140 188 -260 257 -376 215 z" stroke-linecap="round"/>
</g>
<g transform="matrix(0 -0.125 -0.1246 0 500.0901 388.6811)" id="718800">
<path style="stroke: none; stroke-width: 1; stroke-dasharray: none; stroke-linecap: butt; stroke-dashoffset: 0; stroke-linejoin: miter; stroke-miterlimit: 4; is-custom-font: none; font-file-url: none; fill: rgb(0,0,0); fill-rule: nonzero; opacity: 1;" transform=" translate(-4359.1968, -4703.1799)" d="M 3960 6504 c -42 -17 -78 -67 -91 -125 c -17 -75 17 -178 86 -264 c 120 -148 288 -458 358 -660 c 242 -699 125 -1500 -304 -2087 c -95 -129 -127 -185 -139 -245 c -13 -61 -7 -105 23 -159 c 62 -110 234 -98 352 24 c 141 146 348 503 444 767 c 20 55 29 82 66 200 c 23 72 64 267 82 390 c 24 168 24 553 -1 720 c -46 317 -125 572 -260 845 c -98 197 -234 407 -330 509 c -80 85 -201 121 -286 85 z" stroke-linecap="round"/>
</g>
<g transform="matrix(0 -0.125 -0.1246 0 500.0714 507.8307)" id="444002">
<path style="stroke: none; stroke-width: 1; stroke-dasharray: none; stroke-linecap: butt; stroke-dashoffset: 0; stroke-linejoin: miter; stroke-miterlimit: 4; is-custom-font: none; font-file-url: none; fill: rgb(0,0,0); fill-rule: nonzero; opacity: 1;" transform=" translate(-3406, -4705.4583)" d="M 3097 6136 c -75 -27 -107 -80 -107 -175 c 0 -81 23 -137 109 -266 c 224 -334 327 -717 300 -1113 c -22 -313 -128 -616 -311 -888 c -85 -127 -102 -175 -96 -269 c 7 -107 60 -160 161 -159 c 114 1 190 55 295 211 c 253 376 374 772 374 1223 c 0 369 -74 677 -240 1005 c -71 139 -177 299 -234 351 c -80 74 -180 106 -251 80 z" stroke-linecap="round"/>
</g>
<g transform="matrix(0.125 0 0 -0.1246 620.2373 678.4745)" id="250932">
<path style="stroke: none; stroke-width: 1; stroke-dasharray: none; stroke-linecap: butt; stroke-dashoffset: 0; stroke-linejoin: miter; stroke-miterlimit: 4; is-custom-font: none; font-file-url: none; fill: rgb(0,0,0); fill-rule: nonzero; opacity: 1;" transform=" translate(-4864.744, -1593.9178)" d="M 4816 2079 c -123 -18 -247 -104 -301 -209 c -44 -87 -59 -157 -59 -280 c 0 -175 44 -294 142 -381 c 130 -115 339 -140 494 -57 c 69 37 107 77 147 156 c 51 103 54 96 -50 131 c -51 17 -93 30 -94 28 c -1 -1 -10 -24 -19 -51 c -36 -95 -104 -146 -196 -146 c -94 0 -174 60 -207 154 c -23 65 -25 258 -4 330 c 20 68 90 140 151 156 c 102 27 204 -14 248 -100 c 13 -25 26 -45 30 -44 c 4 0 44 9 90 19 c 92 20 94 23 62 93 c -29 63 -66 107 -121 142 c -84 55 -199 76 -313 59 z" stroke-linecap="round"/>
</g>
<g transform="matrix(0.125 0 0 -0.1246 356.9903 680.3211)" id="288366">
<path style="stroke: none; stroke-width: 1; stroke-dasharray: none; stroke-linecap: butt; stroke-dashoffset: 0; stroke-linejoin: miter; stroke-miterlimit: 4; is-custom-font: none; font-file-url: none; fill: rgb(0,0,0); fill-rule: nonzero; opacity: 1;" transform=" translate(-3098.1301, -1595)" d="M 2720 1595 l 0 -475 l 90 0 l 90 0 l 2 305 l 3 304 l 130 -211 c 72 -116 155 -252 186 -302 l 55 -91 l 96 -3 l 95 -3 l 5 138 c 3 76 5 289 4 473 l -1 335 l -87 3 l -88 3 l -1 -278 c -1 -153 -1 -290 -1 -305 c 0 -16 -3 -28 -8 -28 c -5 0 -53 73 -108 163 c -55 89 -130 212 -167 272 c -38 61 -77 125 -88 143 l -19 32 l -94 0 l -94 0 l 0 -475 z" stroke-linecap="round"/>
</g>
<g transform="matrix(0.125 0 0 -0.1246 500 678.339)" id="584341">
<path style="stroke: none; stroke-width: 1; stroke-dasharray: none; stroke-linecap: butt; stroke-dashoffset: 0; stroke-linejoin: miter; stroke-miterlimit: 4; is-custom-font: none; font-file-url: none; fill: rgb(0,0,0); fill-rule: nonzero; opacity: 1;" transform=" translate(-4005, -1595)" d="M 3680 1595 l 0 -475 l 95 0 l 95 0 l 0 200 l 0 200 l 198 2 l 197 3 l 3 78 l 3 77 l -201 0 l -200 0 l 0 115 l 0 115 l 230 0 l 230 0 l 0 80 l 0 80 l -325 0 l -325 0 l 0 -475 z" stroke-linecap="round"/>
</g>
</svg>